<svg xmlns="http://www.w3.org/2000/svg" xmlns:xlink="http://www.w3.org/1999/xlink" fill="none" version="1.1" width="64" height="64" viewBox="374 1531 64 64"><defs><clipPath id="master_svg0_42_9311"><rect x="0" y="0" width="3238" height="1901" rx="0"/></clipPath></defs><g clip-path="url(#master_svg0_42_9311)"><rect x="0" y="0" width="3238" height="1901" rx="0" fill="#FFFFFF" fill-opacity="1"/><g><g><path d="M405.9707893034973,1565.531696L406.4411053034973,1567.413345L407.6200393034973,1572.358139L409.03727230349733,1580.122295C409.03727230349733,1580.122295,409.5075933034973,1588.361538,414.93818730349733,1588.361538C414.93818730349733,1588.361538,420.3687823034973,1590.243191,422.49462930349733,1584.598251L437.83955030349733,1542.2392502C437.83955030349733,1542.2392502,439.49507930349733,1535.1815012,432.1706543034973,1534L385.6655612034973,1541.7641497C385.6655612034973,1541.7641497,383.0693929034973,1542.7081003,381.6521598134973,1544.589748C381.6521598134973,1544.589748,378.8176935034973,1551.416201,383.5397112034973,1553.29785C388.26172920349734,1555.179497,398.1760453034973,1559.180344,398.1760453034973,1559.180344C398.1760453034973,1559.180344,405.9707893034973,1561.293295,405.9707893034973,1565.531696Z" fill="#00A3E7" fill-opacity="1" style="mix-blend-mode:passthrough"/></g><g><ellipse cx="387.9088144302368" cy="1578.0607872009277" rx="13.908814430236816" ry="13.9088134765625" fill="#FFA300" fill-opacity="1" style="mix-blend-mode:passthrough"/></g></g></g></svg>